# xmcd
#
# Track frame offsets: 
#        150
#        13557
#        26311
#        32766
#        51020
#        66329
#        80134
#        93287
#        101833
#        117337
#        122270
#        133826
#        148815
#        159505
#        164616
#        176732
#        188497
#        203522
#        216383
#        226908
#        237734
#        248720
#        261163
#        272218
#        283523
#        290794
#        301041
#        306900
#
# Disc length: 4239 seconds
#
# Revision: 1
# Processed by: cddbd v1.5.2PL0 Copyright (c) Steve Scherf et al.
# Submitted via: ExactAudioCopy v0.99pb4
#
DISCID=9b108d1c
DTITLE=Leadbelly - Complete Recorded Works 1944-1946 - Volume 5
DYEAR=1994
DGENRE=Blues
TTITLE0=Sweet Mary Blues
TTITLE1=Grasshoppers In My Pillow
TTITLE2=Irene, Goodnight
TTITLE3=John Henry
TTITLE4=Boll Weevil
TTITLE5=When A Man's A Long Way From Home
TTITLE6=Good Morning Blues
TTITLE7=By And By When The Morning Comes
TTITLE8=Medley: a)Everytime I Feel The Spirit b)Swing Low Sweet Chario
TTITLE8=t c)They Hung Him On The Cross
TTITLE9=Swing Low Sweet Chariot
TTITLE10=Rock Island Line
TTITLE11=Julie Ann Johnson
TTITLE12=Haul Away Joe
TTITLE13=Christmas Is Coming
TTITLE14=We're In The Same Boat Brother
TTITLE15=Diggin' My Potatoes
TTITLE16=Defense Blues
TTITLE17=Easy Rider
TTITLE18=Pigmeat
TTITLE19=John Henry
TTITLE20=Alabama Bound
TTITLE21=Ham And Eggs
TTITLE22=Yellow Gal
TTITLE23=Stew Ball
TTITLE24=Gray Goose
TTITLE25=Midnight Special
TTITLE26=Green Corn
TTITLE27=Fiddler's Dram
EXTD=YEAR: 1946
EXTT0=
EXTT1=
EXTT2=
EXTT3=
EXTT4=
EXTT5=
EXTT6=
EXTT7=
EXTT8=
EXTT9=
EXTT10=
EXTT11=
EXTT12=
EXTT13=
EXTT14=
EXTT15=
EXTT16=
EXTT17=
EXTT18=
EXTT19=
EXTT20=
EXTT21=
EXTT22=
EXTT23=
EXTT24=
EXTT25=
EXTT26=
EXTT27=
PLAYORDER=
